<svg width="51" height="43" viewBox="0 0 51 43" fill="none" xmlns="http://www.w3.org/2000/svg">
<path d="M12.3172 11H11.3766L11.2281 11.3422C10.9805 11.3422 10.7825 11.3911 10.535 11.3911L10.832 12.0267L11.4756 12.2222L12.8122 11.5867C12.7627 11.44 12.7132 11.2933 12.6637 11.1956L13.5053 10.5111L12.3172 11ZM50.238 23.0756L49.6439 22.8311L49.5944 21.56L48.3568 20.9733L47.8617 20.0933L47.2182 19.3111L48.3568 17.9911L48.2578 17.0622L47.2677 16.8178L47.1687 15.8889L46.7726 14.6667L47.3172 13.8356L46.7726 13.5911C47.0697 12.5644 47.3667 11.5867 47.6637 10.56L47.5647 9.24L46.6241 9.19111L45.139 7.77333L44.0994 7.57778L42.6637 6.74667L41.7726 6.6L41.2281 6.89334L40.3865 6.84445L39.3964 7.82222L38.2578 8.11556L38.1588 8.50667L36.1786 8.94667L34.3469 8.65334L33.4558 7.82222L32.2182 7.48L31.8221 6.30667L31.5251 6.40445L30.733 5.57333L31.1786 4.79111L30.7825 4.30222L30.2875 4.4L28.7528 5.62222L28.3073 5.67111L27.4162 5.47556L26.7726 4.74222L26.5746 4.05778L26.0796 3.56889L25.139 3.17778L25.238 2.34667L25.04 1.76L23.8023 0.92889L22.4162 1.02667L20.8815 1.90667L19.7924 1.76L18.3073 2.00445L16.4756 1.36889L14.2479 0.195557L12.1192 0.244445L10.634 0.733334L9.09936 1.80889L6.67362 1.56445L6.12906 2.83556L4.14886 2.88445L2.71322 4.44889L3.5053 5.23111L2.86173 6.50222L3.80233 7.38222L4.5449 8.94667L5.93104 8.89778L7.16866 9.72889L8.05975 9.53333L8.35678 8.89778L9.74292 8.94667L10.7825 9.77778L12.7132 9.58222L13.6043 8.65334L14.6934 8.99556L15.4855 8.84889L14.9904 9.43556L15.4855 10.1689L15.1885 10.9511L15.2875 12.1244V12.1733L14.6439 13.2489L14.1984 14.4711H14.1489L13.9508 14.8622L13.7033 16.0356L13.3568 16.72L13.4558 16.8178L13.0598 17.3067L12.4162 17.6978L11.4261 17.6L10.3865 17.2578L10.0895 17.7467L9.74292 17.0133L8.85183 16.8178L7.76272 16.9156L7.21817 17.3556L6.22807 17.8444C5.23797 17.4533 4.14886 17.1111 3.10926 16.7689L1.42609 16.8178L0.980546 17.5511L1.17857 18.0889L0.832031 19.0178L1.22807 20.1911V30.36H16.4261L16.1786 30.0667L14.6934 28.8444V27.9644L14.9409 27.72L13.8023 26.2044L13.4063 25.4222L12.9112 24.64L11.9211 22.44L11.1291 20.9733L10.5845 19.4578L10.733 19.3111L11.6241 21.3644C11.9706 21.7556 12.2677 22.0978 12.6142 22.4889L12.9112 22.2444L13.2578 21.5111L13.5548 20.4356L13.9013 19.8489L13.9508 20.0444L13.8023 20.6311L13.7528 21.12L13.5548 21.9022H14.1984C14.6934 22.6356 15.139 23.32 15.634 24.0533L16.1291 25.08L16.5251 25.3733L16.8716 26.1067L16.8221 26.4L17.2677 27.1822L17.9607 27.4756L18.5548 28.0133L19.2974 29.5289L19.2479 30.36L19.3964 31.2889L20.238 32.56L20.832 32.8044L21.7231 33.7333L22.0697 34.8089L22.7627 35.9333L23.4063 36.4222L23.5053 36.96L23.9013 37.3511L24.0499 37.9378L24.0994 38.5244L23.9508 38.7689L24.0994 39.3556L23.8518 39.4044L24.1984 39.9422L24.4459 40.92L24.6439 41.3111L24.5944 42.0444L24.9409 42.8267L25.832 42.8756L26.2281 42.68L26.8716 42.7289L27.0697 42.3867L27.4162 42.2889L27.7132 41.9467L28.0598 41.8489L29.1489 41.8L29.9904 41.5556L30.733 41.0178L31.0301 41.0667L31.5746 41.0178L32.7132 40.0889L34.7429 39.4533L36.0301 38.9156L36.0796 38.4756L36.3271 37.8889L37.2677 37.5467L37.8617 37.4489L38.7033 37.0089L39.3964 37.1556L40.04 36.7644V36.2267L40.535 35.8844H41.3271L41.6241 35.5911L41.7726 34.9556L42.5647 34.4667H43.1588L43.2578 34.32L43.1093 33.44L43.3073 32.7556L43.5548 32.4133L44.1489 32.4622L44.6439 31.5333L45.1885 31.0933C45.3865 30.7022 45.634 30.3111 45.8815 29.92V29.6267L45.3865 29.48C45.0895 29.0889 44.7429 28.6489 44.4459 28.2578L43.7033 28.0133L42.7627 27.8178L42.0697 27.3289L41.4756 26.4L41.2776 25.2756L41.4261 25.0311L41.5251 24.4444L41.4261 24.2489L41.03 24.7378C40.1885 25.6667 39.2479 26.4978 38.4063 27.4267C37.8122 27.3778 37.1687 27.3778 36.5746 27.3289L35.5845 27.5244L35.535 27.1333L35.2875 27.1822L35.04 26.6444L35.337 25.8133V24.9822L34.9409 24.5422L34.5944 24.6889L34.2479 25.4222L34.3469 26.4489L34.1489 26.1067L34.0003 25.6667L33.6538 25.2756L33.5053 24.7867L33.6538 24.2978L33.5548 23.7111L32.6637 23.1244L32.4657 22.6356L31.8221 22.2933C31.5251 21.5111 31.1786 20.7289 30.931 19.9467L31.0301 19.6044L30.7825 18.9689L31.5251 19.0178L32.0201 18.4311L32.8122 18.92L33.5053 18.6756L34.4459 20.6311L35.2875 22L36.5251 22.3911L37.8122 23.4667L39.3964 23.9556L40.6835 23.2711L41.6736 23.0267L42.2677 23.2711L42.8122 24.9822L44.2479 25.1778C45.535 25.4711 46.7726 25.7156 48.0598 25.9111L48.5548 24.2978L50.3865 23.5644L50.238 23.0756Z" fill="black"/>
</svg>
