<svg width="24" height="24" viewBox="0 0 24 24" fill="none" xmlns="http://www.w3.org/2000/svg">
<path d="M2.74994 4.50008C2.65056 4.49867 2.55188 4.51703 2.45966 4.55409C2.36743 4.59115 2.28349 4.64617 2.21271 4.71595C2.14194 4.78574 2.08573 4.86889 2.04737 4.96059C2.00901 5.05228 1.98926 5.15068 1.98926 5.25007C1.98926 5.34947 2.00901 5.44787 2.04737 5.53956C2.08573 5.63126 2.14194 5.71441 2.21271 5.7842C2.28349 5.85398 2.36743 5.909 2.45966 5.94606C2.55188 5.98312 2.65056 6.00148 2.74994 6.00007H21.2499C21.3493 6.00148 21.448 5.98312 21.5402 5.94606C21.6324 5.909 21.7164 5.85398 21.7872 5.7842C21.8579 5.71441 21.9141 5.63126 21.9525 5.53956C21.9909 5.44787 22.0106 5.34947 22.0106 5.25007C22.0106 5.15068 21.9909 5.05228 21.9525 4.96059C21.9141 4.86889 21.8579 4.78574 21.7872 4.71595C21.7164 4.64617 21.6324 4.59115 21.5402 4.55409C21.448 4.51703 21.3493 4.49867 21.2499 4.50008H2.74994ZM2.74994 11.2501C2.65056 11.2487 2.55188 11.267 2.45966 11.3041C2.36743 11.3412 2.28349 11.3962 2.21271 11.466C2.14194 11.5357 2.08573 11.6189 2.04737 11.7106C2.00901 11.8023 1.98926 11.9007 1.98926 12.0001C1.98926 12.0995 2.00901 12.1979 2.04737 12.2896C2.08573 12.3813 2.14194 12.4644 2.21271 12.5342C2.28349 12.604 2.36743 12.659 2.45966 12.6961C2.55188 12.7331 2.65056 12.7515 2.74994 12.7501H21.2499C21.3493 12.7515 21.448 12.7331 21.5402 12.6961C21.6324 12.659 21.7164 12.604 21.7872 12.5342C21.8579 12.4644 21.9141 12.3813 21.9525 12.2896C21.9909 12.1979 22.0106 12.0995 22.0106 12.0001C22.0106 11.9007 21.9909 11.8023 21.9525 11.7106C21.9141 11.6189 21.8579 11.5357 21.7872 11.466C21.7164 11.3962 21.6324 11.3412 21.5402 11.3041C21.448 11.267 21.3493 11.2487 21.2499 11.2501H2.74994ZM2.74994 18.0001C2.65056 17.9987 2.55188 18.017 2.45966 18.0541C2.36743 18.0912 2.28349 18.1462 2.21271 18.216C2.14194 18.2857 2.08573 18.3689 2.04737 18.4606C2.00901 18.5523 1.98926 18.6507 1.98926 18.7501C1.98926 18.8495 2.00901 18.9479 2.04737 19.0396C2.08573 19.1313 2.14194 19.2144 2.21271 19.2842C2.28349 19.354 2.36743 19.409 2.45966 19.4461C2.55188 19.4831 2.65056 19.5015 2.74994 19.5001H21.2499C21.3493 19.5015 21.448 19.4831 21.5402 19.4461C21.6324 19.409 21.7164 19.354 21.7872 19.2842C21.8579 19.2144 21.9141 19.1313 21.9525 19.0396C21.9909 18.9479 22.0106 18.8495 22.0106 18.7501C22.0106 18.6507 21.9909 18.5523 21.9525 18.4606C21.9141 18.3689 21.8579 18.2857 21.7872 18.216C21.7164 18.1462 21.6324 18.0912 21.5402 18.0541C21.448 18.017 21.3493 17.9987 21.2499 18.0001H2.74994Z" fill="white"/>
</svg>
