<svg width="29" height="42" viewBox="0 0 29 42" fill="none" xmlns="http://www.w3.org/2000/svg">
<path d="M13.5079 16.7421L7.48364 24.1645C7.37803 24.2928 7.31963 24.454 7.31829 24.6207V30.4138H8.75607V25.5548C8.75607 25.3071 8.85378 25.0695 9.02769 24.8943C9.20161 24.7191 9.43749 24.6207 9.68344 24.6207C9.88377 24.6189 10.0792 24.6829 10.2401 24.8032C10.401 24.9234 10.5185 25.0932 10.5749 25.2869L12.1061 30.4138C12.2696 30.9536 12.352 31.515 12.3505 32.0793V32.2603C12.3465 33.2784 12.0763 34.2775 11.5669 35.1569L7.62742 42H0L4.31334 35.1497C4.39316 35.0347 4.43812 34.8988 4.44274 34.7586V23.4403L11.6316 14.9245C11.7439 14.7898 11.8834 14.6807 12.0409 14.6045C12.1983 14.5283 12.37 14.4868 12.5446 14.4828C12.8739 14.4847 13.1891 14.6173 13.4219 14.8518C13.6548 15.0863 13.7864 15.4039 13.7883 15.7355V15.931C13.7908 16.2259 13.6917 16.5125 13.5079 16.7421ZM21.387 42L17.4474 35.1931C16.9381 34.3137 16.6678 33.3147 16.6639 32.2966V32.1155C16.6624 31.5512 16.7448 30.9898 16.9083 30.45L18.4395 25.3086C18.4919 25.1109 18.6077 24.9362 18.769 24.8118C18.9302 24.6874 19.1278 24.6202 19.3309 24.6207C19.5769 24.6207 19.8128 24.7191 19.9867 24.8943C20.1606 25.0695 20.2583 25.3071 20.2583 25.5548V30.4138H21.6961V24.6207C21.6947 24.454 21.6363 24.2928 21.5307 24.1645L15.5064 16.7421C15.3227 16.5125 15.2236 16.2259 15.2261 15.931V15.721C15.2317 15.3919 15.365 15.078 15.5974 14.8466C15.8298 14.6152 16.143 14.4846 16.4698 14.4828C16.6504 14.4816 16.8291 14.5206 16.9932 14.597C17.1572 14.6733 17.3025 14.7851 17.4187 14.9245L24.5716 23.4403V34.7586C24.572 34.8974 24.6119 35.0331 24.6867 35.1497L29 42H21.387Z" fill="white"/>
<path d="M11.6316 2.89655H13.0694C13.2601 2.89655 13.4429 2.82026 13.5777 2.68446C13.7126 2.54865 13.7883 2.36447 13.7883 2.17241V0H15.2261V2.17241C15.2261 2.36447 15.3018 2.54865 15.4366 2.68446C15.5715 2.82026 15.7543 2.89655 15.945 2.89655H17.3827V4.34483H15.945C15.7543 4.34483 15.5715 4.42112 15.4366 4.55692C15.3018 4.69272 15.2261 4.87691 15.2261 5.06897V10.1379H13.7883V5.06897C13.7883 4.87691 13.7126 4.69272 13.5777 4.55692C13.4429 4.42112 13.2601 4.34483 13.0694 4.34483H11.6316V2.89655Z" fill="white"/>
<path d="M26.2172 3.1057L23.3401 6.00387L24.3568 7.02795L27.2339 4.12979L26.2172 3.1057Z" fill="white"/>
<path d="M24.3575 10.3479L23.3409 11.3719L26.218 14.2701L27.2347 13.246L24.3575 10.3479Z" fill="white"/>
<path d="M28.1661 7.96552H24.5716V9.41379H28.1661V7.96552Z" fill="white"/>
<path d="M4.65622 10.3502L1.77906 13.2483L2.79572 14.2724L5.67288 11.3743L4.65622 10.3502Z" fill="white"/>
<path d="M2.79495 3.10802L1.77829 4.13211L4.65545 7.03027L5.67211 6.00619L2.79495 3.10802Z" fill="white"/>
<path d="M4.44274 7.96552H0.84829V9.41379H4.44274V7.96552Z" fill="white"/>
</svg>
